# xmcd
#
# Track frame offsets: 
#        150
#        15970
#        33097
#        49005
#        66205
#        87863
#        102265
#        116380
#        136248
#        154236
#
# Disc length: 2294 seconds
#
# Revision: 2
# Processed by: cddbd v1.5.2PL0 Copyright (c) Steve Scherf et al.
# Submitted via: ExactAudioCopy v0.95b4
#
DISCID=7008f40a
DTITLE=Jerry Jeff Walker - Ridin' High
DYEAR=1975
DGENRE=Country
TTITLE0=Public Domain
TTITLE1=Pick Up The Tempo
TTITLE2=Like a Coat From the Cold
TTITLE3=I Love You
TTITLE4=Night Rider's Lament
TTITLE5=Goodbye Easy Street
TTITLE6=Pot Can't Call the Kettle Black
TTITLE7=Mississippi You're on My Mind
TTITLE8=Jaded Lover
TTITLE9=Pissin' in the Wind
EXTD=
EXTT0=
EXTT1=
EXTT2=
EXTT3=
EXTT4=
EXTT5=
EXTT6=
EXTT7=
EXTT8=
EXTT9=
PLAYORDER=
